<?xml version="1.0" encoding="UTF-8" standalone="no"?>
<!-- Created with Inkscape (http://www.inkscape.org/) -->

<svg
   xmlns:dc="http://purl.org/dc/elements/1.1/"
   xmlns:cc="http://creativecommons.org/ns#"
   xmlns:rdf="http://www.w3.org/1999/02/22-rdf-syntax-ns#"
   xmlns:svg="http://www.w3.org/2000/svg"
   xmlns="http://www.w3.org/2000/svg"
   xmlns:sodipodi="http://sodipodi.sourceforge.net/DTD/sodipodi-0.dtd"
   xmlns:inkscape="http://www.inkscape.org/namespaces/inkscape"
   id="svg3039"
   version="1.1"
   inkscape:version="0.48.2 r9819"
   width="24"
   height="24"
   sodipodi:docname="Screenshot.png">
  <metadata
     id="metadata3045">
    <rdf:RDF>
      <cc:Work
         rdf:about="">
        <dc:format>image/svg+xml</dc:format>
        <dc:type
           rdf:resource="http://purl.org/dc/dcmitype/StillImage" />
        <dc:title></dc:title>
      </cc:Work>
    </rdf:RDF>
  </metadata>
  <defs
     id="defs3043" />
  <sodipodi:namedview
     pagecolor="#ffffff"
     bordercolor="#666666"
     borderopacity="1"
     objecttolerance="10"
     gridtolerance="10"
     guidetolerance="10"
     inkscape:pageopacity="0"
     inkscape:pageshadow="2"
     inkscape:window-width="1366"
     inkscape:window-height="743"
     id="namedview3041"
     showgrid="false"
     fit-margin-top="0"
     fit-margin-left="0"
     fit-margin-right="0"
     fit-margin-bottom="0"
     inkscape:zoom="2.0734433"
     inkscape:cx="33.902053"
     inkscape:cy="37.677499"
     inkscape:window-x="0"
     inkscape:window-y="25"
     inkscape:window-maximized="1"
     inkscape:current-layer="svg3039" />
  <g
     transform="matrix(0.19354839,0,0,0.19354839,-0.38709678,-0.38709678)"
     id="Layer_2"
     style="fill:#2e4064;fill-opacity:1">
    <path
       style="fill:#2e4064;fill-opacity:1"
       inkscape:connector-curvature="0"
       d="m 126,118 c 0,4.418 -3.582,8 -8,8 H 10 c -4.418,0 -8,-3.582 -8,-8 V 10 C 2,5.582 5.582,2 10,2 h 108 c 4.418,0 8,3.582 8,8 v 108 z"
       id="path3109" />
  </g>
  <g
     transform="matrix(0.19354839,0,0,0.19354839,-0.38709678,-0.38709678)"
     id="Layer_3">
    <path
       style="fill:#ffffff"
       inkscape:connector-curvature="0"
       d="M 93.376,117.012 H 72.203 V 65.767 H 61.625 V 48.107 H 72.203 V 37.504 c 0,-14.407 5.973,-22.974 22.943,-22.974 h 14.128 v 17.662 h -8.831 c -6.606,0 -7.043,2.468 -7.043,7.074 l -0.024,8.839 h 15.998 l -1.872,17.66 H 93.376 v 51.247 z"
       id="path3117" />
  </g>
</svg>
