<?xml version="1.0" encoding="UTF-8" standalone="no"?>
<!-- Created with Inkscape (http://www.inkscape.org/) -->

<svg
   xmlns:dc="http://purl.org/dc/elements/1.1/"
   xmlns:cc="http://creativecommons.org/ns#"
   xmlns:rdf="http://www.w3.org/1999/02/22-rdf-syntax-ns#"
   xmlns:svg="http://www.w3.org/2000/svg"
   xmlns="http://www.w3.org/2000/svg"
   xmlns:sodipodi="http://sodipodi.sourceforge.net/DTD/sodipodi-0.dtd"
   xmlns:inkscape="http://www.inkscape.org/namespaces/inkscape"
   id="svg2"
   version="1.1"
   inkscape:version="0.48.2 r9819"
   width="929.6499"
   height="242.84387"
   xml:space="preserve"
   sodipodi:docname="JEM arch final.ai"><metadata
     id="metadata8"><rdf:RDF><cc:Work
         rdf:about=""><dc:format>image/svg+xml</dc:format><dc:type
           rdf:resource="http://purl.org/dc/dcmitype/StillImage" /><dc:title></dc:title></cc:Work></rdf:RDF></metadata><defs
     id="defs6"><clipPath
       clipPathUnits="userSpaceOnUse"
       id="clipPath16"><path
         d="m 0,841.89 1190.55,0 L 1190.55,0 0,0 0,841.89 z"
         id="path18"
         inkscape:connector-curvature="0" /></clipPath></defs><sodipodi:namedview
     pagecolor="#ffffff"
     bordercolor="#666666"
     borderopacity="1"
     objecttolerance="10"
     gridtolerance="10"
     guidetolerance="10"
     inkscape:pageopacity="0"
     inkscape:pageshadow="2"
     inkscape:window-width="1366"
     inkscape:window-height="743"
     id="namedview4"
     showgrid="false"
     fit-margin-top="10"
     fit-margin-left="10"
     fit-margin-right="10"
     fit-margin-bottom="10"
     inkscape:snap-global="true"
     inkscape:object-paths="true"
     inkscape:object-nodes="true"
     inkscape:snap-smooth-nodes="true"
     inkscape:snap-midpoints="true"
     inkscape:snap-intersection-paths="true"
     inkscape:zoom="1.4015696"
     inkscape:cx="615.71962"
     inkscape:cy="90.508922"
     inkscape:window-x="0"
     inkscape:window-y="25"
     inkscape:window-maximized="1"
     inkscape:current-layer="g10" /><g
     id="g10"
     inkscape:groupmode="layer"
     inkscape:label="JEM arch final"
     transform="matrix(1.25,0,0,-1.25,-279.81263,494.69975)"><g
       id="g20"
       transform="translate(868.7363,270.8428)"><path
         d="M 0,0 C 1.602,0 2.802,0.355 3.604,1.066 4.403,1.777 4.805,2.934 4.805,4.535 4.805,6.077 4.403,7.196 3.604,7.893 2.802,8.589 1.602,8.938 0,8.938 l -7.648,0 L -7.648,0 0,0 z m 2.492,14.363 c 1.422,0 2.705,-0.23 3.846,-0.689 1.141,-0.46 2.119,-1.09 2.935,-1.889 0.817,-0.801 1.44,-1.728 1.869,-2.781 0.429,-1.053 0.643,-2.186 0.643,-3.402 0,-1.868 -0.392,-3.483 -1.178,-4.847 C 9.822,-0.609 8.539,-1.646 6.762,-2.358 l 0,-0.088 c 0.858,-0.238 1.57,-0.601 2.133,-1.089 0.563,-0.49 1.024,-1.069 1.379,-1.736 0.356,-0.667 0.615,-1.401 0.777,-2.2 0.165,-0.8 0.276,-1.601 0.336,-2.402 0.028,-0.504 0.059,-1.097 0.088,-1.778 0.028,-0.683 0.083,-1.38 0.156,-2.091 0.074,-0.711 0.19,-1.387 0.355,-2.024 0.162,-0.636 0.408,-1.177 0.735,-1.623 l -6.984,0 c -0.383,1.008 -0.623,2.209 -0.711,3.603 -0.088,1.392 -0.221,2.726 -0.401,4.003 -0.236,1.659 -0.739,2.873 -1.51,3.646 -0.771,0.771 -2.031,1.157 -3.78,1.157 l -6.983,0 0,-12.409 -6.981,0 0,31.752 17.121,0 z"
         style="fill:#5c5c5b;fill-opacity:1;fill-rule:nonzero;stroke:none"
         id="path22"
         inkscape:connector-curvature="0" /></g><g
       id="g24"
       transform="translate(906.582,276.7354)"><path
         d="m 0,0 c -0.415,0.666 -0.936,1.251 -1.556,1.756 -0.623,0.504 -1.328,0.896 -2.113,1.178 -0.785,0.281 -1.61,0.421 -2.47,0.421 -1.569,0 -2.903,-0.303 -4.002,-0.911 -1.094,-0.607 -1.985,-1.423 -2.668,-2.444 -0.682,-1.024 -1.177,-2.188 -1.49,-3.492 -0.31,-1.305 -0.467,-2.654 -0.467,-4.047 0,-1.334 0.157,-2.631 0.467,-3.891 0.313,-1.259 0.808,-2.394 1.49,-3.402 0.683,-1.008 1.574,-1.816 2.668,-2.423 1.099,-0.608 2.433,-0.911 4.002,-0.911 2.137,0 3.804,0.65 5.004,1.957 1.2,1.303 1.935,3.023 2.201,5.158 l 6.759,0 c -0.176,-1.987 -0.637,-3.781 -1.377,-5.383 -0.742,-1.599 -1.72,-2.962 -2.935,-4.089 -1.217,-1.128 -2.64,-1.987 -4.27,-2.581 -1.63,-0.592 -3.425,-0.888 -5.382,-0.888 -2.428,0 -4.616,0.422 -6.558,1.267 -1.941,0.844 -3.579,2.008 -4.913,3.491 -1.334,1.481 -2.358,3.223 -3.069,5.224 -0.712,2.002 -1.067,4.158 -1.067,6.471 0,2.371 0.355,4.573 1.067,6.603 0.711,2.032 1.735,3.803 3.069,5.315 1.334,1.514 2.972,2.697 4.913,3.559 1.942,0.858 4.13,1.289 6.558,1.289 1.75,0 3.403,-0.253 4.958,-0.756 C 0.379,7.965 1.77,7.231 3.001,6.269 4.229,5.307 5.248,4.113 6.048,2.689 6.847,1.267 7.351,-0.365 7.561,-2.202 l -6.761,0 C 0.68,-1.401 0.415,-0.668 0,0"
         style="fill:#5c5c5b;fill-opacity:1;fill-rule:nonzero;stroke:none"
         id="path26"
         inkscape:connector-curvature="0" /></g><g
       id="g28"
       transform="translate(926.1465,285.2061)"><path
         d="m 0,0 0,-12.185 12.854,0 0,12.185 6.981,0 0,-31.752 -6.981,0 0,13.696 -12.854,0 0,-13.696 -6.98,0 L -6.98,0 0,0 z"
         style="fill:#5c5c5b;fill-opacity:1;fill-rule:nonzero;stroke:none"
         id="path30"
         inkscape:connector-curvature="0" /></g><path
       d="m 958.698,253.454 -6.979,0 0,6.848 6.979,0 0,-6.848 z"
       style="fill:#5c5c5b;fill-opacity:1;fill-rule:nonzero;stroke:none"
       id="path32"
       inkscape:connector-curvature="0" /><g
       id="g34"
       transform="translate(661.502,387.7598)"><path
         d="m 0,0 -100.287,0 -6.182,0 -2.058,-5.83 -5.052,-14.311 -4.111,-11.646 12.351,0 100.364,0 6.215,0 2.039,5.869 4.975,14.311 L 12.291,0 0,0 z"
         style="fill:#2b2b2a;fill-opacity:1;fill-rule:nonzero;stroke:none"
         id="path36"
         inkscape:connector-curvature="0" /></g><g
       id="g38"
       transform="translate(612.2783,336.6377)"><path
         d="m 0,0 -67.259,0 -6.18,0 -2.06,-5.83 -5.053,-14.309 -4.113,-11.648 12.353,0 67.337,0 6.214,0 2.039,5.867 4.976,14.313 L 12.29,0 0,0 z"
         style="fill:#2b2b2a;fill-opacity:1;fill-rule:nonzero;stroke:none"
         id="path40"
         inkscape:connector-curvature="0" /></g><g
       id="g42"
       transform="translate(626.3721,285.5146)"><path
         d="m 0,0 -100.285,0 -6.182,0 -2.058,-5.83 -5.052,-14.311 -4.111,-11.646 12.351,0 100.361,0 6.214,0 2.04,5.869 4.975,14.311 L 12.289,0 0,0 z"
         style="fill:#2b2b2a;fill-opacity:1;fill-rule:nonzero;stroke:none"
         id="path44"
         inkscape:connector-curvature="0" /></g><g
       id="g46"
       transform="translate(836.8105,285.2061)"><path
         d="m 0,0 -7.16,0 -12.009,-31.752 7.028,0 8.449,23.926 0.088,0 8.229,-23.926 7.247,0 L 0,0 z"
         style="fill:#5c5c5b;fill-opacity:1;fill-rule:nonzero;stroke:none"
         id="path48"
         inkscape:connector-curvature="0" /></g><g
       id="g50"
       transform="translate(496.6401,387.7598)"><path
         d="m 0,0 c -8.205,-24.475 -19.9,-56.321 -26.282,-73.701 l -1.478,-4.027 c -3.108,-8.472 -18.161,-24.5 -52.894,-24.517 l -167.393,0 -6.333,0 -1.972,-6.02 -4.686,-14.31 -3.752,-11.457 12.057,0 165.335,0 c 31.045,0 54.764,5.553 70.495,16.504 13.98,9.733 18.727,21.34 21.564,28.275 l 0.403,0.982 c 0.594,1.437 21.761,58.387 30.695,85.283 L 36.752,0 0,0 z"
         style="fill:#2b2b2a;fill-opacity:1;fill-rule:nonzero;stroke:none"
         id="path52"
         inkscape:connector-curvature="0" /></g><g
       id="g54"
       transform="translate(697.8096,387.7598)"><path
         d="m 0,0 -43.445,-122.551 -4.133,-11.658 12.369,0 18.39,0 6.169,0 2.065,5.814 L 35.887,-3.157 37.008,0 0,0 z"
         style="fill:#2b2b2a;fill-opacity:1;fill-rule:nonzero;stroke:none"
         id="path56"
         inkscape:connector-curvature="0" /></g><g
       id="g58"
       transform="translate(753.7266,387.7598)"><path
         d="m 0,0 c -9.4514753,-26.187402 -20.64302,-56.721056 -30.092728,-82.909096 12.400898,0 26.2394835,0 37.2131781,0 C 16.210305,-57.790199 26.792282,-28.325861 35.885,-3.208 L 37.046,0 z"
         style="fill:#2b2b2a;fill-opacity:1;fill-rule:nonzero;stroke:none"
         id="path60"
         inkscape:connector-curvature="0"
         sodipodi:nodetypes="cccccc" /></g><g
       id="g62"
       transform="translate(809.6777,387.7598)"><path
         d="m 0,0 -43.446,-122.551 -4.133,-11.658 12.369,0 18.39,0 6.17,0 2.064,5.814 L 35.886,-3.157 37.007,0 0,0 z"
         style="fill:#2b2b2a;fill-opacity:1;fill-rule:nonzero;stroke:none"
         id="path64"
         inkscape:connector-curvature="0" /></g><g
       id="g112"
       transform="translate(239.521,225.9551)"><path
         d="m 0,0 0,-10.045 c 0,-1.201 -0.083,-2.096 -0.251,-2.685 -0.167,-0.671 -0.452,-1.238 -0.854,-1.701 -0.785,-0.918 -1.824,-1.376 -3.119,-1.376 -0.978,0 -1.893,0.255 -2.744,0.767 l 1.146,2.008 c 0.57,-0.382 1.103,-0.573 1.598,-0.573 0.698,0 1.181,0.265 1.449,0.793 0.281,0.53 0.422,1.455 0.422,2.774 L -2.353,0 0,0 z"
         style="fill:#5c5c5b;fill-opacity:1;fill-rule:nonzero;stroke:none"
         id="path114"
         inkscape:connector-curvature="0" /></g><g
       id="g116"
       transform="translate(257.187,218.2373)"><path
         d="m 0,0 c 0,-1.715 0.576,-3.124 1.729,-4.229 1.147,-1.106 2.47,-1.659 3.972,-1.659 1.629,0 3.004,0.563 4.123,1.689 1.119,1.138 1.679,2.525 1.679,4.158 C 11.503,1.614 10.95,3 9.844,4.119 8.745,5.244 7.384,5.808 5.762,5.808 4.146,5.808 2.782,5.244 1.669,4.119 0.556,3.007 0,1.635 0,0 m -2.364,0.025 c 0,2.186 0.802,4.063 2.404,5.631 1.595,1.569 3.513,2.354 5.752,2.354 2.212,0 4.109,-0.792 5.691,-2.374 1.589,-1.581 2.383,-3.482 2.383,-5.701 0,-2.232 -0.798,-4.126 -2.393,-5.682 -1.602,-1.563 -3.536,-2.342 -5.802,-2.342 -2.004,0 -3.805,0.693 -5.4,2.081 -1.756,1.535 -2.635,3.546 -2.635,6.033"
         style="fill:#5c5c5b;fill-opacity:1;fill-rule:nonzero;stroke:none"
         id="path118"
         inkscape:connector-curvature="0" /></g><g
       id="g120"
       transform="translate(295.1343,223.6523)"><path
         d="m 0,0 -1.9,-1.127 c -0.356,0.616 -0.694,1.02 -1.017,1.207 -0.334,0.214 -0.767,0.322 -1.296,0.322 -0.651,0 -1.19,-0.185 -1.62,-0.553 -0.428,-0.364 -0.643,-0.819 -0.643,-1.369 0,-0.758 0.563,-1.369 1.689,-1.832 l 1.549,-0.633 c 1.26,-0.51 2.182,-1.132 2.766,-1.868 0.583,-0.733 0.874,-1.634 0.874,-2.701 0,-1.429 -0.476,-2.609 -1.427,-3.543 -0.96,-0.938 -2.149,-1.407 -3.57,-1.407 -1.348,0 -2.461,0.4 -3.339,1.201 -0.864,0.8 -1.404,1.926 -1.619,3.374 l 2.373,0.523 c 0.108,-0.913 0.295,-1.543 0.563,-1.891 0.483,-0.67 1.187,-1.006 2.112,-1.006 0.731,0 1.338,0.244 1.82,0.734 0.483,0.489 0.724,1.108 0.724,1.859 0,0.301 -0.041,0.577 -0.125,0.829 -0.084,0.251 -0.215,0.482 -0.393,0.693 -0.177,0.212 -0.407,0.409 -0.688,0.593 -0.282,0.185 -0.617,0.36 -1.006,0.528 l -1.498,0.623 c -2.125,0.897 -3.188,2.211 -3.188,3.938 0,1.166 0.446,2.141 1.338,2.925 0.891,0.789 2,1.185 3.328,1.185 C -2.403,2.604 -1.005,1.736 0,0"
         style="fill:#5c5c5b;fill-opacity:1;fill-rule:nonzero;stroke:none"
         id="path122"
         inkscape:connector-curvature="0" /></g><g
       id="g124"
       transform="translate(319.2861,223.7529)"><path
         d="m 0,0 -6.225,0 0,-3.731 6.044,0 0,-2.202 -6.044,0 0,-5.188 6.225,0 0,-2.203 -8.568,0 0,15.526 L 0,2.202 0,0 z"
         style="fill:#5c5c5b;fill-opacity:1;fill-rule:nonzero;stroke:none"
         id="path126"
         inkscape:connector-curvature="0" /></g><g
       id="g128"
       transform="translate(337.0625,218.9063)"><path
         d="m 0,0 0.875,0 c 2.151,0 3.227,0.827 3.227,2.483 0,1.603 -1.109,2.403 -3.328,2.403 L 0,4.886 0,0 z m 0,-2.173 0,-6.305 -2.344,0 0,15.527 2.656,0 c 1.3,0 2.282,-0.091 2.945,-0.272 C 3.928,6.596 4.518,6.254 5.027,5.751 5.918,4.88 6.364,3.78 6.364,2.453 6.364,1.031 5.889,-0.094 4.937,-0.925 3.985,-1.757 2.701,-2.173 1.085,-2.173 l -1.085,0 z"
         style="fill:#5c5c5b;fill-opacity:1;fill-rule:nonzero;stroke:none"
         id="path130"
         inkscape:connector-curvature="0" /></g><g
       id="g132"
       transform="translate(360.54,219.8818)"><path
         d="m 0,0 6.697,0 0,6.073 2.343,0 0,-15.526 -2.343,0 0,7.251 -6.697,0 0,-7.251 -2.344,0 0,15.526 L 0,6.073 0,0 z"
         style="fill:#5c5c5b;fill-opacity:1;fill-rule:nonzero;stroke:none"
         id="path134"
         inkscape:connector-curvature="0" /></g><g
       id="g136"
       transform="translate(412.9351,223.7529)"><path
         d="m 0,0 -6.225,0 0,-3.731 6.044,0 0,-2.202 -6.044,0 0,-5.188 6.225,0 0,-2.203 -8.568,0 0,15.526 L 0,2.202 0,0 z"
         style="fill:#5c5c5b;fill-opacity:1;fill-rule:nonzero;stroke:none"
         id="path138"
         inkscape:connector-curvature="0" /></g><g
       id="g140"
       transform="translate(430.7114,225.9551)"><path
         d="m 0,0 0,-13.323 4.565,0 0,-2.203 -6.908,0 L -2.343,0 0,0 z"
         style="fill:#5c5c5b;fill-opacity:1;fill-rule:nonzero;stroke:none"
         id="path142"
         inkscape:connector-curvature="0" /></g><path
       d="m 452.198,210.429 -2.343,0 0,15.526 2.343,0 0,-15.526 z"
       style="fill:#5c5c5b;fill-opacity:1;fill-rule:nonzero;stroke:none"
       id="path144"
       inkscape:connector-curvature="0" /><g
       id="g146"
       transform="translate(476.4502,216.4023)"><path
         d="M 0,0 -2.303,5.279 -4.716,0 0,0 z m 0.956,-2.202 -6.648,0 -1.729,-3.772 -2.524,0 7.682,16.502 7.411,-16.502 -2.564,0 -1.628,3.772 z"
         style="fill:#5c5c5b;fill-opacity:1;fill-rule:nonzero;stroke:none"
         id="path148"
         inkscape:connector-curvature="0" /></g><g
       id="g150"
       transform="translate(504.6738,223.6523)"><path
         d="m 0,0 -1.9,-1.127 c -0.356,0.616 -0.694,1.02 -1.016,1.207 -0.335,0.214 -0.768,0.322 -1.297,0.322 -0.65,0 -1.19,-0.185 -1.619,-0.553 -0.429,-0.364 -0.644,-0.819 -0.644,-1.369 0,-0.758 0.564,-1.369 1.69,-1.832 l 1.548,-0.633 c 1.26,-0.51 2.182,-1.132 2.766,-1.868 0.583,-0.733 0.874,-1.634 0.874,-2.701 0,-1.429 -0.476,-2.609 -1.427,-3.543 -0.959,-0.938 -2.149,-1.407 -3.57,-1.407 -1.347,0 -2.461,0.4 -3.339,1.201 -0.865,0.8 -1.404,1.926 -1.619,3.374 l 2.373,0.523 c 0.108,-0.913 0.295,-1.543 0.564,-1.891 0.482,-0.67 1.186,-1.006 2.112,-1.006 0.73,0 1.337,0.244 1.819,0.734 0.483,0.489 0.724,1.108 0.724,1.859 0,0.301 -0.041,0.577 -0.125,0.829 -0.084,0.251 -0.215,0.482 -0.392,0.693 -0.178,0.212 -0.408,0.409 -0.689,0.593 -0.282,0.185 -0.617,0.36 -1.006,0.528 l -1.498,0.623 c -2.125,0.897 -3.187,2.211 -3.187,3.938 0,1.166 0.445,2.141 1.336,2.925 0.893,0.789 2.001,1.185 3.329,1.185 C -2.403,2.604 -1.005,1.736 0,0"
         style="fill:#5c5c5b;fill-opacity:1;fill-rule:nonzero;stroke:none"
         id="path152"
         inkscape:connector-curvature="0" /></g><g
       id="g154"
       transform="translate(538.4263,210.4287)"><path
         d="M 0,0 3.268,16.692 8.597,4.626 14.118,16.692 17.054,0 14.651,0 13.152,9.373 8.557,-0.713 4.092,9.383 2.423,0 0,0 z"
         style="fill:#5c5c5b;fill-opacity:1;fill-rule:nonzero;stroke:none"
         id="path156"
         inkscape:connector-curvature="0" /></g><g
       id="g158"
       transform="translate(579.29,216.4023)"><path
         d="M 0,0 -2.303,5.279 -4.716,0 0,0 z m 0.955,-2.202 -6.646,0 -1.73,-3.772 -2.524,0 7.682,16.502 7.411,-16.502 -2.564,0 -1.629,3.772 z"
         style="fill:#5c5c5b;fill-opacity:1;fill-rule:nonzero;stroke:none"
         id="path160"
         inkscape:connector-curvature="0" /></g><g
       id="g162"
       transform="translate(601.0781,218.8252)"><path
         d="m 0,0 0.744,0 c 2.219,0 3.328,0.849 3.328,2.544 0,1.589 -1.079,2.384 -3.238,2.384 L 0,4.928 0,0 z m 2.916,-1.779 4.808,-6.617 -2.867,0 -4.434,6.355 -0.423,0 0,-6.355 -2.343,0 0,15.526 2.745,0 C 2.454,7.13 3.935,6.745 4.847,5.974 5.852,5.114 6.355,3.982 6.355,2.574 6.355,1.475 6.04,0.529 5.41,-0.261 4.78,-1.053 3.948,-1.558 2.916,-1.779"
         style="fill:#5c5c5b;fill-opacity:1;fill-rule:nonzero;stroke:none"
         id="path164"
         inkscape:connector-curvature="0" /></g><g
       id="g166"
       transform="translate(624.7266,218.2373)"><path
         d="m 0,0 c 0,-1.715 0.577,-3.124 1.729,-4.229 1.147,-1.106 2.471,-1.659 3.973,-1.659 1.629,0 3.002,0.563 4.123,1.689 1.119,1.138 1.679,2.525 1.679,4.158 0,1.655 -0.553,3.041 -1.659,4.16 C 8.745,5.244 7.385,5.808 5.763,5.808 4.146,5.808 2.783,5.244 1.67,4.119 0.557,3.007 0,1.635 0,0 m -2.362,0.025 c 0,2.186 0.799,4.063 2.403,5.631 1.595,1.569 3.513,2.354 5.751,2.354 2.214,0 4.11,-0.792 5.692,-2.374 1.589,-1.581 2.382,-3.482 2.382,-5.701 0,-2.232 -0.797,-4.126 -2.392,-5.682 -1.603,-1.563 -3.536,-2.342 -5.802,-2.342 -2.005,0 -3.805,0.693 -5.401,2.081 -1.755,1.535 -2.633,3.546 -2.633,6.033"
         style="fill:#5c5c5b;fill-opacity:1;fill-rule:nonzero;stroke:none"
         id="path168"
         inkscape:connector-curvature="0" /></g><g
       id="g170"
       transform="translate(656.2383,225.9551)"><path
         d="m 0,0 0,-9.345 c 0,-1.333 0.219,-2.308 0.654,-2.925 0.65,-0.891 1.566,-1.335 2.745,-1.335 1.187,0 2.106,0.444 2.755,1.335 0.437,0.597 0.655,1.572 0.655,2.925 l 0,9.345 2.342,0 0,-9.995 c 0,-1.637 -0.509,-2.984 -1.529,-4.042 -1.145,-1.18 -2.554,-1.77 -4.223,-1.77 -1.669,0 -3.073,0.59 -4.213,1.77 -1.019,1.058 -1.529,2.405 -1.529,4.042 L -2.343,0 0,0 z"
         style="fill:#5c5c5b;fill-opacity:1;fill-rule:nonzero;stroke:none"
         id="path172"
         inkscape:connector-curvature="0" /></g><g
       id="g174"
       transform="translate(681.4658,210.4287)"><path
         d="m 0,0 0,16.582 11.323,-11.845 0,10.789 2.343,0 0,-16.47 L 2.343,10.87 2.343,0 0,0 z"
         style="fill:#5c5c5b;fill-opacity:1;fill-rule:nonzero;stroke:none"
         id="path176"
         inkscape:connector-curvature="0" /></g><g
       id="g178"
       transform="translate(738.0859,216.4023)"><path
         d="M 0,0 -2.304,5.279 -4.717,0 0,0 z m 0.954,-2.202 -6.646,0 -1.73,-3.772 -2.524,0 7.682,16.502 7.412,-16.502 -2.564,0 -1.63,3.772 z"
         style="fill:#5c5c5b;fill-opacity:1;fill-rule:nonzero;stroke:none"
         id="path180"
         inkscape:connector-curvature="0" /></g><g
       id="g182"
       transform="translate(759.874,218.8252)"><path
         d="m 0,0 0.743,0 c 2.219,0 3.329,0.849 3.329,2.544 0,1.589 -1.08,2.384 -3.238,2.384 L 0,4.928 0,0 z m 2.915,-1.779 4.808,-6.617 -2.867,0 -4.434,6.355 -0.422,0 0,-6.355 -2.343,0 0,15.526 2.744,0 C 2.452,7.13 3.935,6.745 4.846,5.974 5.852,5.114 6.354,3.982 6.354,2.574 6.354,1.475 6.04,0.529 5.409,-0.261 4.778,-1.053 3.948,-1.558 2.915,-1.779"
         style="fill:#5c5c5b;fill-opacity:1;fill-rule:nonzero;stroke:none"
         id="path184"
         inkscape:connector-curvature="0" /></g><g
       id="g186"
       transform="translate(793.4063,225.125)"><path
         d="m 0,0 0,-2.77 c -1.354,1.133 -2.755,1.7 -4.203,1.7 -1.596,0 -2.94,-0.574 -4.031,-1.72 -1.101,-1.141 -1.651,-2.533 -1.651,-4.184 0,-1.628 0.55,-3.003 1.651,-4.122 1.098,-1.12 2.446,-1.679 4.043,-1.679 0.823,0 1.523,0.133 2.099,0.402 0.322,0.134 0.656,0.315 1.002,0.543 0.344,0.227 0.708,0.503 1.09,0.824 l 0,-2.83 c -1.341,-0.761 -2.748,-1.141 -4.223,-1.141 -2.218,0 -4.113,0.774 -5.681,2.323 -1.562,1.562 -2.343,3.446 -2.343,5.65 0,1.978 0.653,3.741 1.961,5.289 1.608,1.898 3.689,2.847 6.244,2.847 C -2.647,1.132 -1.301,0.754 0,0"
         style="fill:#5c5c5b;fill-opacity:1;fill-rule:nonzero;stroke:none"
         id="path188"
         inkscape:connector-curvature="0" /></g><g
       id="g190"
       transform="translate(811.4951,219.8818)"><path
         d="m 0,0 6.696,0 0,6.073 2.344,0 0,-15.526 -2.344,0 0,7.251 -6.696,0 0,-7.251 -2.343,0 0,15.526 L 0,6.073 0,0 z"
         style="fill:#5c5c5b;fill-opacity:1;fill-rule:nonzero;stroke:none"
         id="path192"
         inkscape:connector-curvature="0" /></g><path
       d="m 838.955,210.429 -2.344,0 0,15.526 2.344,0 0,-15.526 z"
       style="fill:#5c5c5b;fill-opacity:1;fill-rule:nonzero;stroke:none"
       id="path194"
       inkscape:connector-curvature="0" /><g
       id="g196"
       transform="translate(859.3242,223.7529)"><path
         d="m 0,0 0,-13.324 -2.343,0 0,13.324 -3.569,0 0,2.202 9.473,0 L 3.561,0 0,0 z"
         style="fill:#5c5c5b;fill-opacity:1;fill-rule:nonzero;stroke:none"
         id="path198"
         inkscape:connector-curvature="0" /></g><g
       id="g200"
       transform="translate(885.8994,223.7529)"><path
         d="m 0,0 -6.224,0 0,-3.731 6.042,0 0,-2.202 -6.042,0 0,-5.188 6.224,0 0,-2.203 -8.568,0 0,15.526 L 0,2.202 0,0 z"
         style="fill:#5c5c5b;fill-opacity:1;fill-rule:nonzero;stroke:none"
         id="path202"
         inkscape:connector-curvature="0" /></g><g
       id="g204"
       transform="translate(912.8057,225.125)"><path
         d="m 0,0 0,-2.77 c -1.354,1.133 -2.754,1.7 -4.203,1.7 -1.596,0 -2.94,-0.574 -4.032,-1.72 -1.099,-1.141 -1.649,-2.533 -1.649,-4.184 0,-1.628 0.55,-3.003 1.649,-4.122 1.099,-1.12 2.447,-1.679 4.043,-1.679 0.825,0 1.524,0.133 2.101,0.402 0.321,0.134 0.656,0.315 1,0.543 0.346,0.227 0.709,0.503 1.091,0.824 l 0,-2.83 c -1.341,-0.761 -2.747,-1.141 -4.223,-1.141 -2.218,0 -4.113,0.774 -5.68,2.323 -1.563,1.562 -2.344,3.446 -2.344,5.65 0,1.978 0.653,3.741 1.961,5.289 1.609,1.898 3.69,2.847 6.245,2.847 C -2.648,1.132 -1.301,0.754 0,0"
         style="fill:#5c5c5b;fill-opacity:1;fill-rule:nonzero;stroke:none"
         id="path206"
         inkscape:connector-curvature="0" /></g><g
       id="g208"
       transform="translate(932.4014,223.7529)"><path
         d="m 0,0 0,-13.324 -2.343,0 0,13.324 -3.569,0 0,2.202 9.472,0 L 3.56,0 0,0 z"
         style="fill:#5c5c5b;fill-opacity:1;fill-rule:nonzero;stroke:none"
         id="path210"
         inkscape:connector-curvature="0" /></g><g
       id="g212"
       transform="translate(959.168,223.6523)"><path
         d="m 0,0 -1.9,-1.127 c -0.356,0.616 -0.695,1.02 -1.016,1.207 -0.335,0.214 -0.768,0.322 -1.298,0.322 -0.649,0 -1.189,-0.185 -1.618,-0.553 -0.429,-0.364 -0.644,-0.819 -0.644,-1.369 0,-0.758 0.563,-1.369 1.69,-1.832 l 1.549,-0.633 c 1.26,-0.51 2.18,-1.132 2.763,-1.868 0.583,-0.733 0.876,-1.634 0.876,-2.701 0,-1.429 -0.475,-2.609 -1.427,-3.543 -0.958,-0.938 -2.149,-1.407 -3.571,-1.407 -1.346,0 -2.46,0.4 -3.338,1.201 -0.865,0.8 -1.404,1.926 -1.62,3.374 l 2.375,0.523 c 0.107,-0.913 0.293,-1.543 0.563,-1.891 0.482,-0.67 1.186,-1.006 2.112,-1.006 0.729,0 1.336,0.244 1.819,0.734 0.483,0.489 0.725,1.108 0.725,1.859 0,0.301 -0.042,0.577 -0.127,0.829 -0.083,0.251 -0.215,0.482 -0.392,0.693 -0.177,0.212 -0.407,0.409 -0.689,0.593 -0.281,0.185 -0.617,0.36 -1.006,0.528 l -1.497,0.623 c -2.125,0.897 -3.188,2.211 -3.188,3.938 0,1.166 0.446,2.141 1.338,2.925 0.891,0.789 2,1.185 3.328,1.185 C -2.404,2.604 -1.006,1.736 0,0"
         style="fill:#5c5c5b;fill-opacity:1;fill-rule:nonzero;stroke:none"
         id="path214"
         inkscape:connector-curvature="0" /></g></g></svg>